<?xml version="1.0" encoding="UTF-8"?>
<svg version="1.1" xmlns="http://www.w3.org/2000/svg" width="509" height="518">
<path d="M0 0 C167.97 0 335.94 0 509 0 C509 170.94 509 341.88 509 518 C341.03 518 173.06 518 0 518 C0 347.06 0 176.12 0 0 Z " fill="#7AB4E6" transform="translate(0,0)"/>
<path d="M0 0 C167.97 0 335.94 0 509 0 C509 52.47 509 104.94 509 159 C505.46797723 156.88078634 502.4671301 154.86468986 499.25 152.375 C490.21625284 145.72567046 480.01350751 140.98317407 470 136 C470.35251442 124.64903558 471.81600284 113.58433733 473.62792969 102.37792969 C476.47405594 86.16130747 476.47405594 86.16130747 472 71 C466.39064589 64.29408042 460.41191116 62.41683673 452 61 C451.21882813 60.86609863 450.43765625 60.73219727 449.6328125 60.59423828 C431.98371236 56.94733972 431.98371236 56.94733972 415 61 C406.99263732 67.8811127 405.05704097 75.24019965 403.78125 85.35546875 C403.67784302 86.1383577 403.57443604 86.92124664 403.46789551 87.7278595 C403.14029508 90.21378592 402.81972656 92.70054973 402.5 95.1875 C402.07574657 98.4521975 401.64836804 101.71647303 401.21875 104.98046875 C401.11618896 105.76187225 401.01362793 106.54327576 400.90795898 107.34835815 C400.0784258 113.59009964 399.10377914 119.80049188 398 126 C397.1478894 126.11275269 397.1478894 126.11275269 396.27856445 126.2277832 C380.0017087 128.38434281 380.0017087 128.38434281 364 132 C362.53433594 132.39445312 362.53433594 132.39445312 361.0390625 132.796875 C338.58757546 139.51464278 317.92375726 156.48306484 306.453125 176.73046875 C302.19871605 184.85551264 299.0841246 193.3819497 296 202 C294.86292603 202.09704224 294.86292603 202.09704224 293.70288086 202.19604492 C276.79901816 203.68085228 260.4950307 205.90823198 244 210 C242.11463357 210.44682661 240.22921647 210.89343946 238.34375 211.33984375 C195.78203653 221.67162959 154.15311087 241.42382932 120 269 C119.15566406 269.66386719 118.31132813 270.32773437 117.44140625 271.01171875 C114.94087542 272.98413747 112.46842417 274.9875748 110 277 C108.59427734 278.12535156 108.59427734 278.12535156 107.16015625 279.2734375 C93.12335622 290.68904318 80.04514009 303.66613842 69 318 C68.07900917 319.12396122 67.15425801 320.24484754 66.2265625 321.36328125 C54.24836918 335.88053198 44.22906442 351.621116 35 368 C34.62810547 368.65194336 34.25621094 369.30388672 33.87304688 369.97558594 C18.14037682 397.73667304 8.19968518 428.04467157 1 459 C0.67 459 0.34 459 0 459 C0 307.53 0 156.06 0 0 Z " fill="#0047BB" transform="translate(0,0)"/>
<path d="M0 0 C1.31967773 0.22949341 1.31967773 0.22949341 2.66601562 0.46362305 C10.06683733 1.89191379 15.80623177 4.28148771 20.8125 10.1875 C21.38742187 10.8475 21.96234375 11.5075 22.5546875 12.1875 C29.24739094 21.86734226 24.05019542 40.22902363 22.4375 51.125 C22.0770502 53.59758886 21.71953876 56.07051831 21.36755371 58.54432678 C21.15028141 60.06774668 20.92805291 61.59047166 20.6998291 63.11228943 C20.06282105 67.53523374 19.83544833 71.73549571 19.9375 76.1875 C21.03707031 76.68378906 22.13664063 77.18007812 23.26953125 77.69140625 C38.51750384 84.65953789 38.51750384 84.65953789 45.24810565 89.33653736 C46.98824169 90.53417757 48.76420926 91.68197997 50.57710779 92.76632977 C54.6129434 95.44688496 57.44338752 97.51840745 58.85190701 102.27633095 C59.19969479 106.12994941 59.22434914 109.91691793 59.14004517 113.77856445 C59.14440971 115.26629086 59.15317257 116.75400972 59.16593683 118.24168777 C59.18824683 122.31776962 59.14838006 126.39121266 59.09815621 130.46695828 C59.05490491 134.8663107 59.06958985 139.26551855 59.07717896 143.6650238 C59.08241846 151.28326586 59.05108823 158.9006504 58.99480057 166.51867676 C58.9134726 177.53286078 58.88748049 188.54663086 58.87492065 199.5610826 C58.85304314 217.43174446 58.78651816 235.30194944 58.69189453 253.17236328 C58.60008125 270.53008782 58.52942317 287.88768756 58.48681641 305.24560547 C58.48413643 306.32674507 58.48145646 307.40788468 58.47869527 308.52178609 C58.45790062 316.97721455 58.43833153 325.43264572 58.41914964 333.88807797 C58.32484024 375.32163802 58.12365266 416.75405416 57.9375 458.1875 C3.1575 458.1875 -51.6225 458.1875 -108.0625 458.1875 C-110.79659687 449.98520938 -108.44964267 440.46575881 -107.25 432.125 C-107.06985352 430.84471924 -106.88970703 429.56443848 -106.70410156 428.24536133 C-105.40540125 419.17227317 -103.92801744 410.16176951 -102.0625 401.1875 C-102.70832031 401.06375 -103.35414063 400.94 -104.01953125 400.8125 C-114.64505823 398.48680326 -122.49895693 394.63530761 -133.0625 390.1875 C-133.0625 351.2475 -133.0625 312.3075 -133.0625 272.1875 C-119.43058742 273.55069126 -109.05151822 277.86837974 -100.25 288.5625 C-93.73973006 297.38621438 -92.17908154 307.40680019 -93.0625 318.1875 C-93.66495808 320.55297959 -94.40196888 322.75515899 -95.30859375 325.01953125 C-96.24302499 327.70662627 -96.64968697 330.37796663 -97.0625 333.1875 C-83.36596681 340.83919452 -71.41922558 343.52937453 -55.875 343.625 C-54.699375 343.63515137 -53.52375 343.64530273 -52.3125 343.65576172 C-40.53406214 343.53844002 -30.68529089 342.25763461 -22.1328125 333.69140625 C-16.08563917 326.37774945 -15.38256572 318.93074387 -15.69140625 309.609375 C-16.49355677 302.21270286 -20.53097084 298.03960254 -26.09375 293.34375 C-35.94236523 286.19054525 -47.14646936 281.08875522 -58.125 275.9375 C-79.83283326 265.73428904 -102.42519419 254.03737185 -120.64419556 238.18919373 C-123.0154831 236.14175095 -123.0154831 236.14175095 -125.65512085 234.53871155 C-129.22907703 232.01046786 -132.37686063 229.60414496 -133.61786652 225.23002243 C-134.48733899 219.34941978 -134.20905969 213.41894775 -134.0390625 207.49609375 C-134.02038811 205.58085335 -134.00616442 203.66556485 -133.9961853 201.7502594 C-133.95818281 196.73320309 -133.860119 191.71908799 -133.74914551 186.70318604 C-133.64645184 181.57531519 -133.60109267 176.4469643 -133.55078125 171.31835938 C-133.44385037 161.27324585 -133.2681101 151.23107875 -133.0625 141.1875 C-139.9925 141.1875 -146.9225 141.1875 -154.0625 141.1875 C-149.99156351 122.86828577 -142.84554393 110.75224087 -130.0625 97.1875 C-129.51078125 96.57132812 -128.9590625 95.95515625 -128.390625 95.3203125 C-119.51746967 85.7882595 -107.79219663 79.49015575 -96.0625 74.1875 C-94.81533203 73.60355469 -94.81533203 73.60355469 -93.54296875 73.0078125 C-87.07817069 70.31327632 -80.29947276 69.16441792 -73.4375 67.9375 C-72.45918213 67.7619458 -71.48086426 67.5863916 -70.47290039 67.40551758 C-64.58446338 66.41904877 -59.03160225 66.01519602 -53.0625 66.1875 C-53.10117187 65.10339844 -53.13984375 64.01929687 -53.1796875 62.90234375 C-53.17727412 57.40829056 -52.16356324 52.14134185 -51.1875 46.75 C-49.67333018 38.1254998 -48.4410505 29.56383367 -47.65234375 20.84375 C-46.15079681 11.53614778 -42.0632693 4.87854401 -34.4375 -0.75 C-24.2057796 -5.3273486 -10.62458137 -1.92911189 0 0 Z " fill="#FEFEFE" transform="translate(451.0625,59.8125)"/>
<path d="M0 0 C1.52028809 0.00845947 1.52028809 0.00845947 3.07128906 0.01708984 C15.68943628 0.21957362 27.36577986 1.81201081 37.9375 9.3125 C38.9375 11.3125 38.9375 11.3125 38.1953125 13.5546875 C37.63457031 14.85792969 37.63457031 14.85792969 37.0625 16.1875 C33.01766456 25.66316344 32.19301701 36.52223719 35.9375 46.3125 C40.00321717 56.31797585 46.14126787 63.54581817 55.9375 68.3125 C59.2290128 69.50399785 62.54426753 70.45842108 65.9375 71.3125 C66.54932129 71.48523438 67.16114258 71.65796875 67.79150391 71.8359375 C71.82638345 72.73196536 75.94564121 72.53950079 80.0625 72.5625 C80.96226562 72.583125 81.86203125 72.60375 82.7890625 72.625 C84.13484375 72.63273437 84.13484375 72.63273437 85.5078125 72.640625 C86.30977051 72.6499707 87.11172852 72.65931641 87.93798828 72.66894531 C92.38199811 72.14084387 96.65096096 70.59846171 100.9375 69.3125 C100.9375 94.3925 100.9375 119.4725 100.9375 145.3125 C98.9375 143.3125 98.9375 143.3125 97.25 139.75 C94.80227399 134.72715703 91.47622536 130.60729663 87.9375 126.3125 C87.24527344 125.41724609 87.24527344 125.41724609 86.5390625 124.50390625 C82.07796161 118.92108346 76.57527058 114.65530044 70.9375 110.3125 C69.94234375 109.54035156 68.9471875 108.76820313 67.921875 107.97265625 C47.45750714 92.52719436 23.39160613 81.56649187 0.5703125 70.11328125 C-31.97420479 53.66784421 -31.97420479 53.66784421 -37.0625 38.3125 C-38.21542962 28.20425655 -36.72463313 18.56654309 -30.3125 10.4375 C-21.78196739 1.49973091 -11.88378711 -0.06902299 0 0 Z " fill="#0148BB" transform="translate(408.0625,188.6875)"/>
<path d="M0 0 C8.65671642 6.49253731 8.65671642 6.49253731 11.875 9.625 C32.82206591 28.37457338 60.23015727 41.01471649 85.33691406 53.12744141 C97.55786414 59.03485737 108.71725505 64.84100158 117 76 C119.64704614 83.94113842 118.95215946 94.23857535 115.39453125 101.78125 C110.05519902 110.27632201 103.12897038 114.20931623 93.50244141 116.56787109 C74.36849428 119.87197709 55.45373181 117.03063108 38.1953125 108.5625 C36 107 36 107 35.09375 105.0625 C34.98438581 102.65648772 35.43420305 101.20957816 36.375 99 C40.60243665 88.88575905 39.83238151 78.20149953 36 68 C30.26651121 57.12346301 21.52861676 50.73217223 10 47 C5.05 45.515 5.05 45.515 0 44 C0 29.48 0 14.96 0 0 Z " fill="#0148BB" transform="translate(318,287)"/>
<path d="M0 0 C0.33 0 0.66 0 1 0 C1 38.94 1 77.88 1 118 C-30.35 118 -61.7 118 -94 118 C-93.40986291 110.32821779 -92.83394408 102.95774639 -91.58984375 95.41796875 C-91.45808243 94.59291336 -91.32632111 93.76785797 -91.19056702 92.9178009 C-90.77779233 90.34021421 -90.35781006 87.76386743 -89.9375 85.1875 C-89.65251131 83.41609334 -89.36800274 81.64460937 -89.08398438 79.87304688 C-88.39484545 75.58112136 -87.69925044 71.29028922 -87 67 C-86.09399048 66.7997522 -86.09399048 66.7997522 -85.16967773 66.59545898 C-84.36989502 66.41829346 -83.5701123 66.24112793 -82.74609375 66.05859375 C-81.9564624 65.88384521 -81.16683105 65.70909668 -80.35327148 65.52905273 C-76.88396856 64.74909844 -73.43746347 63.90972568 -70 63 C-69.28714844 62.81953125 -68.57429688 62.6390625 -67.83984375 62.453125 C-44.19266364 55.97877185 -21.90888665 41.10536774 -8.75 20.125 C-5.12395632 13.75164746 -2.31683075 6.95049225 0 0 Z " fill="#0147BB" transform="translate(508,400)"/>
<path d="M0 0 C7.03835658 5.04051964 13.19927923 11.28140234 15 20 C15.99851164 31.46483843 15.22909867 41.08770782 7.75 50.3125 C1.62239024 56.8214417 -5.83693847 61.15221517 -14.87524414 61.48266602 C-25.03377193 61.56317226 -32.45805324 59.79328179 -40.37109375 52.94921875 C-47.55088343 45.5322984 -50.34418799 38.14995141 -50.4375 27.875 C-50.23069835 17.25959011 -47.71813592 11.98846269 -40.40234375 4.26953125 C-28.57612005 -6.90288496 -14.01749143 -7.8005287 0 0 Z " fill="#020303" transform="translate(303,244)"/>
<path d="M0 0 C7.03835658 5.04051964 13.19927923 11.28140234 15 20 C15.99851164 31.46483843 15.22909867 41.08770782 7.75 50.3125 C1.62239024 56.8214417 -5.83693847 61.15221517 -14.87524414 61.48266602 C-25.03377193 61.56317226 -32.45805324 59.79328179 -40.37109375 52.94921875 C-47.55088343 45.5322984 -50.34418799 38.14995141 -50.4375 27.875 C-50.23069835 17.25959011 -47.71813592 11.98846269 -40.40234375 4.26953125 C-28.57612005 -6.90288496 -14.01749143 -7.8005287 0 0 Z " fill="#020203" transform="translate(224,244)"/>
<path d="M0 0 C10.40803114 3.46934371 20.74450134 7.10291051 31 11 C30.75310485 13.06287397 30.50207658 15.12525277 30.25 17.1875 C30.16637207 17.87295898 30.08274414 18.55841797 29.99658203 19.26464844 C29.37980874 24.21781244 28.6948205 29.15816063 27.9765625 34.09765625 C27.79577148 35.35618408 27.61498047 36.61471191 27.42871094 37.91137695 C27.0664687 40.42263561 26.69759291 42.93294859 26.32128906 45.44213867 C26.15081055 46.63170166 25.98033203 47.82126465 25.8046875 49.046875 C25.64983887 50.09713867 25.49499023 51.14740234 25.33544922 52.22949219 C24.86950104 57.46683114 25 62.74197499 25 68 C16.75 68 8.5 68 0 68 C0 45.56 0 23.12 0 0 Z " fill="#0148BB" transform="translate(318,450)"/>
<path d="M0 0 C3.69230769 0.69230769 3.69230769 0.69230769 5 2 C6.12718771 8.05427624 1.6186918 12.88110609 -1.53320312 17.67382812 C-4.26912892 22.02871728 -4.26912892 22.02871728 -5.125 27.015625 C-3.56577858 31.15189293 -1.39182133 34.64933384 1.0625 38.3125 C1.5663623 39.06724609 2.07022461 39.82199219 2.58935547 40.59960938 C4.04175445 42.74603006 5.51619807 44.87521258 7 47 C7.63035156 47.92167969 8.26070312 48.84335937 8.91015625 49.79296875 C12.83423546 54.84332126 17.58576297 57.79401721 23.125 60.8125 C23.78709473 61.17408203 24.44918945 61.53566406 25.13134766 61.90820312 C37.50018095 68.19357192 49.65342548 69.58886292 63.25 69.625 C65.48943683 69.64138495 67.72846129 69.66333581 69.9677124 69.69662476 C71.96694459 69.72498532 73.96640857 69.73533749 75.96582031 69.74462891 C79 70 79 70 81 72 C80.77034064 74.3731467 80.22196726 75.71098885 78.76977539 77.60180664 C76.39331282 79.47930714 74.88055147 79.40160356 71.87109375 79.43359375 C70.84508057 79.44511475 69.81906738 79.45663574 68.76196289 79.46850586 C67.66489014 79.45827393 66.56781738 79.44804199 65.4375 79.4375 C64.31013428 79.42920166 63.18276855 79.42090332 62.02124023 79.41235352 C37.74796098 78.92761245 13.36534189 70.51200994 -3.73046875 52.80859375 C-7.64309427 47.9666355 -10.34170378 42.61587083 -13 37 C-13.40992188 37.56589844 -13.81984375 38.13179688 -14.2421875 38.71484375 C-14.78101563 39.44832031 -15.31984375 40.18179688 -15.875 40.9375 C-16.40867188 41.66839844 -16.94234375 42.39929688 -17.4921875 43.15234375 C-19 45 -19 45 -21 46 C-23.5132797 46.12393466 -25.98670114 46.18515112 -28.5 46.1875 C-29.18964844 46.19974609 -29.87929687 46.21199219 -30.58984375 46.22460938 C-32.39477494 46.22988695 -34.19917842 46.12184458 -36 46 C-36.66 45.34 -37.32 44.68 -38 44 C-37.625 41.375 -37.625 41.375 -37 39 C-35.865625 39.061875 -34.73125 39.12375 -33.5625 39.1875 C-27.55712412 39.16616652 -22.05377787 37.9456843 -17.625 33.75 C-16.12094617 31.20467813 -14.96925177 28.64486279 -13.82080078 25.92626953 C-4.83259717 4.83259717 -4.83259717 4.83259717 0 0 Z " fill="#E31D25" transform="translate(202,323)"/>
<path d="M0 0 C4.9710149 2.53240382 8.49430567 5.98861134 11 11 C11.56735892 15.65048294 11.4598631 19.09730577 9.3125 23.3125 C6.27121832 26.84696249 2.8897777 30.64744712 -1.953125 31.23828125 C-7.52904883 31.41845566 -10.6168059 30.77158562 -15 27 C-19.15625516 22.28208874 -20.36072814 19.50576653 -20.28125 13.31640625 C-19.6982585 8.51482352 -16.86738294 5.76412307 -13.375 2.6875 C-8.96198422 -0.44806384 -5.32248886 -0.64623811 0 0 Z " fill="#F8F8F8" transform="translate(226,256)"/>
<path d="M0 0 C5.67507225 2.00296668 9.30675089 5.61350179 12 11 C12.56735892 15.65048294 12.4598631 19.09730577 10.3125 23.3125 C7.27121832 26.84696249 3.8897777 30.64744712 -0.953125 31.23828125 C-6.52904883 31.41845566 -9.6168059 30.77158562 -14 27 C-18.15625516 22.28208874 -19.36072814 19.50576653 -19.28125 13.31640625 C-18.6982585 8.51482352 -15.86738294 5.76412307 -12.375 2.6875 C-8.28551432 -0.2181872 -4.9348306 -0.49809505 0 0 Z " fill="#F9F9F9" transform="translate(304,256)"/>
<path d="M0 0 C3.5625 0.375 3.5625 0.375 6.4375 2.75 C9.75285736 6.84544144 9.90874695 9.09473408 9.5625 14.375 C8.33651791 18.24652238 7.4038373 20.6505151 4.3125 23.3125 C-0.03345141 24.99161759 -3.70718503 24.80757874 -8.1875 23.6875 C-11.28781826 21.87898102 -12.12573621 20.75796977 -13.4375 17.375 C-14.79014739 8.37989484 -14.79014739 8.37989484 -12.23046875 4.5859375 C-8.25635312 1.14505764 -5.00120436 0.54558593 0 0 Z " fill="#BBD9F2" transform="translate(156.4375,305.625)"/>
</svg>
